<svg height="484pt" viewBox="0 0 484.91747 484" width="484pt" xmlns="http://www.w3.org/2000/svg"><path d="m438.917969 242.917969c0-9.3125 6.574219-17.332031 15.707031-19.148438 9.132812-1.820312 18.28125 3.066407 21.847656 11.667969 3.5625 8.601562.554688 18.527344-7.1875 23.703125-7.738281 5.175781-18.058594 4.160156-24.644531-2.421875-3.667969-3.65625-5.726563-8.625-5.722656-13.800781zm0 0" fill="#00acea"/><path d="m434.539062 165.085938c-.003906-9.3125 6.574219-17.328126 15.707032-19.148438 9.132812-1.820312 18.277344 3.066406 21.84375 11.671875 3.566406 8.601563.558594 18.523437-7.183594 23.699219-7.742188 5.175781-18.0625 4.164062-24.648438-2.421875-3.664062-3.65625-5.722656-8.621094-5.71875-13.800781zm0 0" fill="#00acea"/><path d="m434.539062 320.746094c-.003906-9.3125 6.574219-17.328125 15.707032-19.148438 9.132812-1.820312 18.277344 3.066406 21.84375 11.667969 3.566406 8.605469.558594 18.527344-7.183594 23.703125s-18.0625 4.164062-24.648438-2.421875c-3.664062-3.65625-5.722656-8.621094-5.71875-13.800781zm0 0" fill="#00acea"/><path d="m282.527344 110.078125c69.683594 20.949219 111.382812 92.128906 95.585937 163.15625s-83.738281 117.816406-155.730469 107.253906c-71.992187-10.566406-123.625-74.902343-118.351562-147.476562 5.273438-72.570313 65.664062-128.769531 138.425781-128.816407 13.574219-.007812 27.074219 1.972657 40.070313 5.882813zm37.910156 103.347656c0-9.1875-14.640625-17.257812-36.789062-21.769531-1.308594-.179688-2.621094-.558594-3.941407-.75l-.46875.082031-2.160156-12.460937c-.914063-5.890625-3.308594-11.457032-6.960937-16.171875-3.636719-4.679688-8.410157-8.355469-13.867188-10.667969-9.972656-4.289062-21.371094-3.730469-30.875 1.519531-9.503906 5.246094-16.046875 14.59375-17.726562 25.320313l-2.128907 12.28125-.5-.089844c-1.5.378906-3 .570312-4.5.9375-21.589843 4.511719-36.039062 12.582031-36.039062 21.582031 0 6.160157 6.71875 11.847657 17.867187 16.308594v32.140625l-3.519531-.300781 3.519531 5.339843v37.0625c.003906 4.339844 2.230469 8.378907 5.902344 10.699219l47.449219 29.96875c4.128906 2.609375 9.390625 2.609375 13.519531 0l47.449219-29.96875c3.671875-2.320312 5.898437-6.359375 5.902343-10.699219v-37.0625l3.519532-5.339843-3.519532.300781v-32c11.160157-4.421875 17.867188-10.089844 17.867188-16.261719zm0 0" fill="#00efd1"/><path d="m320.289062 50.835938c-9.3125.003906-17.332031-6.574219-19.148437-15.707032-1.820313-9.132812 3.066406-18.277344 11.667969-21.84375 8.601562-3.566406 18.527344-.558594 23.703125 7.183594s4.160156 18.0625-2.421875 24.648438c-3.65625 3.664062-8.625 5.722656-13.800782 5.71875zm0 0" fill="#00acea"/><path d="m320.289062 434.996094c9.3125 0 17.328126 6.574218 19.148438 15.707031s-3.066406 18.28125-11.667969 21.847656c-8.605469 3.566407-18.527343.558594-23.703125-7.183593-5.175781-7.742188-4.160156-18.0625 2.421875-24.648438 3.65625-3.667969 8.621094-5.726562 13.800781-5.722656zm0 0" fill="#00acea"/><path d="m302.570312 229.6875c-14.292968 5.660156-35.882812 9.269531-60.023437 9.269531-24.179687 0-45.859375-3.679687-60.199219-9.410156-11.148437-4.460937-17.867187-10.148437-17.867187-16.308594 0-9 14.449219-17.070312 36.039062-21.582031 1.5-.367188 3-.558594 4.5-.9375l.5.089844-2.191406 12.667968 11.449219 3.570313c17.929687 5.820313 37.242187 5.820313 55.171875 0l11.449219-3.570313-2.160157-12.488281.46875-.082031c1.320313.191406 2.632813.570312 3.941407.75 22.148437 4.511719 36.789062 12.582031 36.789062 21.769531 0 6.171875-6.707031 11.839844-17.867188 16.261719zm0 0" fill="#00acea"/><path d="m302.570312 266.726562v37.0625c-.003906 4.339844-2.230468 8.378907-5.902343 10.699219l-47.449219 29.96875c-4.128906 2.609375-9.390625 2.609375-13.519531 0l-47.449219-29.96875c-3.671875-2.320312-5.898438-6.359375-5.902344-10.699219v-37.0625l20.949219 31.78125 30.300781-32.480468-.148437-.011719c6.578125-5.078125 11.441406-5.078125 18.019531 0l-.148438.011719 30.296876 32.480468zm0 0" fill="#fedb41"/><path d="m251.46875 266.015625 51.101562-4.328125v5.039062l-20.953124 31.78125-30.296876-32.480468zm0 0" fill="#00acea"/><path d="m302.570312 229.6875v32l-51.101562 4.328125c-6.578125-5.078125-11.441406-5.078125-18.019531 0l-51.101563-4.328125v-32.140625c14.339844 5.730469 36.019532 9.410156 60.199219 9.410156 24.140625 0 45.730469-3.609375 60.023437-9.269531zm0 0" fill="#fedb41"/><path d="m279.238281 190.988281 2.160157 12.488281-11.449219 3.570313c-17.929688 5.820313-37.242188 5.820313-55.171875 0l-11.449219-3.570313 2.191406-12.667968 2.128907-12.28125c1.722656-10.703125 8.273437-20.015625 17.761718-25.257813 9.492188-5.238281 20.863282-5.824219 30.839844-1.582031 5.457031 2.3125 10.230469 5.988281 13.867188 10.667969 3.652343 4.714843 6.046874 10.28125 6.960937 16.171875zm0 0" fill="#fedb41"/><g fill="#00acea"><path d="m242.457031 46.457031c-9.3125.003907-17.328125-6.574219-19.148437-15.707031-1.820313-9.132812 3.066406-18.277344 11.671875-21.84375 8.601562-3.566406 18.523437-.558594 23.699219 7.183594 5.175781 7.742187 4.164062 18.0625-2.421876 24.648437-3.65625 3.667969-8.621093 5.726563-13.800781 5.71875zm0 0"/><path d="m242.457031 439.378906c9.3125-.003906 17.332031 6.570313 19.152344 15.707032 1.816406 9.132812-3.066406 18.277343-11.671875 21.84375-8.601562 3.566406-18.527344.558593-23.703125-7.183594-5.171875-7.742188-4.160156-18.0625 2.425781-24.648438 3.652344-3.667968 8.621094-5.726562 13.796875-5.71875zm0 0"/><path d="m233.449219 266.015625.148437.011719-30.300781 32.480468-20.949219-31.78125v-5.039062zm0 0"/><path d="m164.628906 50.835938c-9.3125.003906-17.332031-6.574219-19.148437-15.707032-1.820313-9.132812 3.066406-18.277344 11.667969-21.84375 8.601562-3.566406 18.527343-.558594 23.703124 7.183594 5.175782 7.742188 4.160157 18.0625-2.421874 24.648438-3.65625 3.664062-8.625 5.722656-13.800782 5.71875zm0 0"/><path d="m164.628906 434.996094c9.3125 0 17.328125 6.574218 19.148438 15.707031 1.820312 9.132813-3.066406 18.28125-11.667969 21.847656-8.605469 3.566407-18.527344.558594-23.703125-7.183593-5.175781-7.742188-4.160156-18.0625 2.421875-24.648438 3.65625-3.667969 8.621094-5.726562 13.800781-5.722656zm0 0"/><path d="m50.378906 165.085938c.003906 9.3125-6.574218 17.332031-15.707031 19.152343-9.132813 1.816407-18.28125-3.070312-21.84375-11.671875-3.566406-8.601562-.558594-18.527344 7.183594-23.703125 7.742187-5.175781 18.0625-4.160156 24.648437 2.425781 3.664063 3.65625 5.722656 8.621094 5.71875 13.796876zm0 0"/><path d="m50.378906 320.746094c.003906 9.3125-6.574218 17.332031-15.707031 19.152344-9.132813 1.816406-18.28125-3.070313-21.84375-11.671876-3.566406-8.601562-.558594-18.527343 7.183594-23.703124 7.742187-5.175782 18.0625-4.160157 24.648437 2.421874 3.664063 3.660157 5.722656 8.625 5.71875 13.800782zm0 0"/><path d="m46 242.917969c0 9.3125-6.574219 17.328125-15.707031 19.148437-9.132813 1.820313-18.28125-3.066406-21.847657-11.667968-3.566406-8.605469-.558593-18.527344 7.183594-23.703126 7.742188-5.175781 18.0625-4.160156 24.648438 2.421876 3.667968 3.65625 5.726562 8.621093 5.722656 13.800781zm0 0"/></g><path d="m285.277344 184.847656-1.292969-7.460937c-1.109375-7.039063-3.976563-13.6875-8.335937-19.324219-4.375-5.621094-10.113282-10.035156-16.667969-12.820312-10.625-4.484376-22.609375-4.484376-33.234375 0l-.09375.039062c-13.234375 5.75-22.625 17.851562-24.910156 32.101562l-1.269532 7.335938c-.167968.039062-.328125.070312-.5.109375-26.757812 5.609375-41.4375 15.699219-41.4375 28.410156 0 5.800781 2.925782 13.90625 17.925782 20.882813v21.210937c-1.054688.597657-1.945313 1.449219-2.589844 2.476563-1.363282 2.3125-1.285156 5.195312.199218 7.429687l2.386719 3.589844v34.960937c-.035156 6.738282 3.40625 13.023438 9.109375 16.617188l47.421875 29.96875c6.410157 4.03125 14.5625 4.03125 20.976563 0l47.394531-29.972656c5.699219-3.59375 9.140625-9.875 9.097656-16.613282v-34.960937l2.421875-3.589844c1.464844-2.242187 1.523438-5.128906.144532-7.429687-.636719-1.027344-1.515626-1.878906-2.566407-2.476563v-21.054687c15-6.925782 17.925781-15.039063 17.925781-20.851563 0-12.859375-14.914062-23-42.105468-28.578125zm-70.730469-5.121094c.003906-.039062.011719-.074218.015625-.101562 1.535156-9.546875 7.828125-17.652344 16.695312-21.507812 7.132813-2.929688 15.132813-2.925782 22.261719.019531 4.351563 1.851562 8.164063 4.78125 11.070313 8.515625 2.921875 3.78125 4.839844 8.238281 5.574218 12.960937.007813.039063.015626.078125.019532.113281l3.273437 18.890626-5.65625 1.765624c-16.550781 5.410157-34.390625 5.402344-50.933593-.023437l-5.59375-1.742187zm38.800781 79.097657c-7.40625-4.777344-14.386718-4.777344-21.789062 0l-42.101563-3.570313v-15.949218c15 4.269531 33.480469 6.652343 53.089844 6.652343 19.574219 0 37.910156-2.34375 52.910156-6.542969v15.839844zm38.960938 10.753906-11.632813 17.648437-14.402343-15.441406zm-73.652344 2.207031-14.402344 15.441406-11.632812-17.648437zm74.222656 36.78125-47.421875 29.972656c-1.84375 1.15625-4.1875 1.15625-6.027343 0l-47.390626-29.96875c-1.632812-1.039062-2.609374-2.847656-2.582031-4.78125v-13.726562l8.050781 12.300781c1.171876 1.789063 3.101563 2.941407 5.230469 3.121094.203125.019531.378907.027344.574219.027344 1.941406 0 3.789062-.808594 5.109375-2.226563l30.242187-32.417968c3.066407-2.199219 4.527344-2.199219 7.59375 0l30.242188 32.417968c1.324219 1.417969 3.179688 2.226563 5.117188 2.226563.195312 0 .390624-.007813.589843-.027344 2.121094-.179687 4.039063-1.332031 5.199219-3.121094l8.050781-12.300781v13.726562c.023438 1.929688-.953125 3.742188-2.582031 4.78125zm7.117188-85.390625c-14.085938 5.578125-35.019532 8.777344-57.441406 8.777344-22.4375 0-43.433594-3.246094-57.601563-8.90625-9.882813-3.953125-13.46875-8.035156-13.46875-9.8125 0-2.414063 6.53125-8.84375 25.40625-13.5625l-.453125 2.609375c-.597656 3.460938 1.460938 6.828125 4.8125 7.875l11.363281 3.542969c19.300781 6.320312 40.117188 6.328125 59.425781.027343l11.449219-3.570312c3.355469-1.046875 5.414063-4.414062 4.8125-7.875l-.429687-2.5c19.171875 4.734375 25.574218 11.089844 25.574218 13.644531-.007812 1.78125-3.585937 5.84375-13.453124 9.753907zm0 0" fill="#083863"/><path d="m432.859375 249.917969c1.210937 4.445312 3.566406 8.496093 6.832031 11.75 8.476563 8.464843 21.574219 10.191406 31.953125 4.210937 10.382813-5.980468 15.457031-18.179687 12.386719-29.757812s-13.527344-19.65625-25.507812-19.703125c-11.980469-.046875-22.5 7.945312-25.664063 19.5h-44.851563c-.421874-9.449219-1.796874-18.828125-4.097656-28h27.628906c3.902344-.140625 6.976563-3.375 6.917969-7.28125v-28.71875h10.019531c1.070313 4.527343 3.445313 8.644531 6.832032 11.835937 10.339844 10.367188 27.125 10.394532 37.5.0625v.007813c10.257812-10.375 10.21875-27.082031-.089844-37.410157-10.304688-10.328124-27.011719-10.398437-37.410156-.164062-3.183594 3.28125-5.523438 7.285156-6.832032 11.667969h-16.9375c-3.914062.074219-7.054687 3.253906-7.082031 7.167969v28.832031h-24.789062c-4.894531-13.863281-11.933594-26.871094-20.855469-38.554688-17.6875-23.21875-41.804688-40.734375-69.355469-50.378906v-24.066406h30.832031c3.914063-.023438 7.097657-3.167969 7.167969-7.082031v-16.9375c4.382813-1.304688 8.382813-3.648438 11.667969-6.832032 10.382812-10.355468 10.394531-27.171875.027344-37.546875-10.367188-10.375-27.179688-10.375-37.546875 0-10.367188 10.375-10.351563 27.191407.027343 37.546875 3.1875 3.386719 7.300782 5.765625 11.824219 6.832032v10.019531h-30.929687c-3.863282-.042969-7.027344 3.054687-7.070313 6.917969v27.152343c-8.53125-2.023437-17.238281-3.230469-26-3.605469v-44.867187c4.449219-1.210937 8.5-3.566406 11.75-6.828125 8.46875-8.476562 10.195313-21.578125 4.214844-31.957031-5.980469-10.378907-18.179687-15.457031-29.757813-12.386719-11.578124 3.074219-19.65625 13.53125-19.703124 25.507812-.050782 11.980469 7.945312 22.5 19.496093 25.664063v44.851563c-9.445312.421874-18.828125 1.796874-28 4.101562v-27.632812c-.136719-3.902344-3.371093-6.976563-7.277343-6.917969h-28.722657v-10.019531c4.53125-1.066407 8.644531-3.445313 11.835938-6.832032 10.351562-10.351562 10.367187-27.125.042969-37.5h.019531c-10.371094-10.269531-27.09375-10.238281-37.425781.074219-10.332032 10.3125-10.394532 27.035156-.140626 37.425781 3.285157 3.183594 7.285157 5.527344 11.667969 6.832032v16.9375c.074219 3.914062 3.257813 7.058593 7.171875 7.082031h28.828125v24.789062c-13.859375 4.898438-26.871093 11.933594-38.554687 20.855469-23.214844 17.691406-40.734375 41.804688-50.375 69.355469h-24.070313v-30.832031c-.023437-3.914063-3.164062-7.09375-7.078125-7.167969h-16.9375c-1.308594-4.382813-3.652344-8.382813-6.832031-11.664063-7.59375-7.628906-19.035156-9.929687-28.984375-5.820312-9.949219 4.105468-16.4375 13.804687-16.4375 24.570312 0 10.761719 6.488281 20.460938 16.4375 24.566406 9.949219 4.109376 21.390625 1.8125 28.984375-5.816406 3.386719-3.191406 5.761719-7.308594 6.832031-11.835937h10.015625v30.929687c-.042969 3.863282 3.058594 7.03125 6.921875 7.070313h27.152344c-2.023438 8.53125-3.226562 17.238281-3.601562 26h-44.871094c-1.210938-4.445313-3.566406-8.496094-6.832032-11.75-8.476562-8.464844-21.574218-10.191407-31.957031-4.210938-10.378906 5.976563-15.457031 18.175781-12.382812 29.757813 3.070312 11.578125 13.527343 19.65625 25.507812 19.703125s22.5-7.949219 25.664063-19.5h44.851562c.421875 9.445312 1.796875 18.828125 4.097656 28h-27.628906c-3.902344.140625-6.980468 3.375-6.921875 7.277343v28.722657h-10.015625c-1.070312-4.53125-3.445312-8.644531-6.832031-11.835938-10.351563-10.347656-27.125-10.367187-37.5-.042969v-.023437c-10.316406 10.367187-10.300781 27.121094.03125 37.472656 10.328125 10.347657 27.085937 10.390625 37.46875.09375 3.179687-3.28125 5.523437-7.285156 6.832031-11.664062h16.9375c3.914063-.074219 7.054688-3.253907 7.078125-7.171875v-28.828125h24.792969c4.894531 13.859375 11.933594 26.871093 20.855469 38.554687 17.6875 23.21875 41.804687 40.734375 69.351562 50.375v24.070313h-30.828125c-3.914062.023437-7.097656 3.164062-7.171875 7.078125v16.9375c-4.378906 1.308594-8.382812 3.652344-11.664062 6.832031-10.378907 10.363281-10.390625 27.175781-.023438 37.550781 10.367188 10.375 27.183594 10.375 37.550781 0 10.367188-10.375 10.355469-27.1875-.027343-37.550781-3.1875-3.386719-7.304688-5.761719-11.835938-6.832031v-10.015625h30.933594c3.863281.042969 7.027344-3.058594 7.066406-6.921875v-27.148438c8.535157 2.019532 17.242188 3.226563 26 3.605469v44.863281c-4.445312 1.210938-8.496093 3.566406-11.75 6.832032-8.464843 8.476562-10.191406 21.574218-4.210937 31.957031 5.980468 10.378906 18.179687 15.457031 29.757812 12.382812 11.578125-3.070312 19.65625-13.527343 19.703125-25.507812.050781-11.976563-7.945312-22.5-19.5-25.664063v-44.847656c9.449219-.425781 18.828125-1.796875 28-4.101562v27.628906c.140625 3.90625 3.375 6.980468 7.28125 6.921875h28.71875v10.015625c-4.527343 1.070312-8.640625 3.445312-11.832031 6.832031-10.351562 10.351563-10.367188 27.128906-.042969 37.5h-.023437c10.367187 10.316406 27.121094 10.300781 37.46875-.027344 10.351562-10.332031 10.394531-27.085937.097656-37.472656-3.28125-3.179687-7.285156-5.523437-11.667969-6.832031v-16.9375c-.070312-3.914063-3.253906-7.054688-7.167969-7.078125h-28.832031v-24.789063c13.863281-4.898437 26.871094-11.9375 38.558594-20.859375 23.214844-17.6875 40.730469-41.800781 50.375-69.351562h24.066406v30.828125c.027344 3.917968 3.167969 7.097656 7.082031 7.171875h16.9375c1.304688 4.378906 3.648438 8.382812 6.832032 11.664062 10.359375 10.382813 27.175781 10.390625 37.550781.023438 10.375-10.367188 10.375-27.179688 0-37.546875-10.375-10.367188-27.191406-10.355469-37.550781.023437-3.386719 3.191407-5.761719 7.304688-6.832032 11.835938h-10.019531v-30.929688c.046875-3.863281-3.054687-7.03125-6.917969-7.070312h-27.152343c2.019531-8.535157 3.226562-17.238281 3.601562-26zm16.726563-15.847657c4.222656-4.214843 10.835937-4.863281 15.796874-1.546874 4.957032 3.316406 6.882813 9.675781 4.597657 15.1875-2.285157 5.511718-8.144531 8.640624-13.996094 7.476562-5.855469-1.167969-10.066406-6.304688-10.066406-12.269531.003906-3.320313 1.324219-6.5 3.667969-8.847657zm-4.378907-77.832031c4.222657-4.214843 10.832031-4.863281 15.792969-1.546875 4.957031 3.320313 6.882812 9.675782 4.597656 15.1875-2.285156 5.507813-8.144531 8.640625-13.996094 7.472656-5.851562-1.164062-10.0625-6.300781-10.0625-12.265624-.007812-3.320313 1.3125-6.507813 3.667969-8.847657zm-137.433593-124.921875c0-5.972656 4.21875-11.117187 10.078124-12.28125 5.859376-1.167968 11.726563 1.96875 14.011719 7.488282 2.289063 5.519531.355469 11.886718-4.613281 15.203124-4.96875 3.320313-11.589844 2.667969-15.8125-1.558593-2.351562-2.34375-3.671875-5.53125-3.664062-8.851563zm-155.660157 0c0-5.972656 4.21875-11.117187 10.078125-12.28125 5.859375-1.167968 11.726563 1.96875 14.011719 7.488282 2.289063 5.519531.355469 11.886718-4.613281 15.203124-4.96875 3.320313-11.585938 2.667969-15.8125-1.558593-2.351563-2.34375-3.671875-5.53125-3.664063-8.851563zm-112.40625 142.621094c-4.21875 4.214844-10.832031 4.859375-15.789062 1.542969-4.957031-3.316407-6.882813-9.671875-4.597657-15.183594 2.285157-5.511719 8.144532-8.640625 13.996094-7.476563 5.847656 1.167969 10.0625 6.300782 10.0625 12.265626.007813 3.324218-1.3125 6.511718-3.671875 8.851562zm-4.375 77.828125c-4.21875 4.214844-10.832031 4.867187-15.792969 1.550781-4.960937-3.316406-6.886718-9.675781-4.605468-15.1875 2.285156-5.511718 8.144531-8.644531 14-7.480468 5.851562 1.164062 10.066406 6.300781 10.066406 12.269531-.003906 3.316406-1.324219 6.5-3.667969 8.847656zm4.375 77.832031c-3.152343 3.191406-7.777343 4.449219-12.117187 3.296875-4.335938-1.152343-7.726563-4.542969-8.878906-8.878906-1.152344-4.339844.105468-8.960937 3.296874-12.117187 3.15625-3.195313 7.78125-4.453126 12.117188-3.296876 4.339844 1.152344 7.726562 4.539063 8.878906 8.878907 1.15625 4.335937-.101562 8.960937-3.296875 12.117187zm137.4375 124.917969c0 5.976563-4.21875 11.117187-10.078125 12.285156-5.859375 1.164063-11.726562-1.972656-14.015625-7.492187-2.285156-5.519532-.351562-11.882813 4.617188-15.203125 4.96875-3.316407 11.585937-2.664063 15.8125 1.5625 2.351562 2.339843 3.671875 5.527343 3.664062 8.847656zm155.660157 0c0 5.0625-3.050782 9.628906-7.726563 11.566406s-10.0625.867188-13.640625-2.714843c-4.007812-4.003907-4.824219-10.203126-1.992188-15.109376 2.835938-4.90625 8.609376-7.296874 14.082032-5.832031 5.472656 1.46875 9.277344 6.425781 9.273437 12.089844zm112.398437-142.617187c4.222656-4.214844 10.832031-4.863282 15.789063-1.546876 4.960937 3.320313 6.882812 9.675782 4.601562 15.1875-2.285156 5.507813-8.144531 8.636719-13.996094 7.472657-5.851562-1.164063-10.0625-6.300781-10.0625-12.265625-.007812-3.320313 1.316406-6.507813 3.671875-8.847656zm-211.589844-293.816407c4.886719-4.886719 12.816407-4.886719 17.703125.003907 4.890625 4.886718 4.890625 12.816406 0 17.703124-4.886718 4.890626-12.816406 4.890626-17.703125.003907-2.375-2.335938-3.710937-5.527344-3.710937-8.855469s1.335937-6.519531 3.710937-8.855469zm17.691407 449.667969c-4.886719 4.890625-12.816407 4.890625-17.703126 0-4.890624-4.890625-4.890624-12.816406 0-17.707031 4.886719-4.886719 12.816407-4.886719 17.703126 0 2.371093 2.335937 3.707031 5.527343 3.707031 8.855469 0 3.328124-1.335938 6.515624-3.707031 8.851562zm70.417968-119.621094c-33.550781 25.238282-77.109375 33.007813-117.316406 20.925782-26.765625-8.15625-50.273438-24.5625-67.160156-46.875-25.238282-33.550782-33.007813-77.105469-20.925782-117.3125 8.15625-26.769532 24.5625-50.273438 46.875-67.164063 33.550782-25.234375 77.105469-33.003906 117.3125-20.925781 26.765626 8.15625 50.273438 24.5625 67.160157 46.875 25.238281 33.550781 33.003906 77.109375 20.921875 117.316406-8.152344 26.765625-24.558594 50.273438-46.867188 67.160156zm0 0" fill="#083863"/></svg>